<?xml version="1.0" encoding="UTF-8" standalone="no"?>
<svg
   xmlns:dc="http://purl.org/dc/elements/1.1/"
   xmlns:cc="http://creativecommons.org/ns#"
   xmlns:rdf="http://www.w3.org/1999/02/22-rdf-syntax-ns#"
   xmlns:svg="http://www.w3.org/2000/svg"
   xmlns="http://www.w3.org/2000/svg"
   xmlns:sodipodi="http://sodipodi.sourceforge.net/DTD/sodipodi-0.dtd"
   xmlns:inkscape="http://www.inkscape.org/namespaces/inkscape"
   width="12.578997mm"
   height="15.723305mm"
   viewBox="0 0 12.578997 15.723305"
   version="1.1"
   id="svg8"
   inkscape:version="1.0.2 (e86c870879, 2021-01-15, custom)"
   sodipodi:docname="example_pin.svg">
  <defs
     id="defs2">
    <clipPath
       clipPathUnits="userSpaceOnUse"
       id="clipPath855">
      <path
         d="M 0,136.063 H 136.063 V 0 H 0 Z"
         id="path853" />
    </clipPath>
    <clipPath
       clipPathUnits="userSpaceOnUse"
       id="clipPath985">
      <path
         d="M 0,136.063 H 136.063 V 0 H 0 Z"
         id="path983" />
    </clipPath>
    <clipPath
       clipPathUnits="userSpaceOnUse"
       id="clipPath1077">
      <path
         d="M 0,136.063 H 136.063 V 0 H 0 Z"
         id="path1075" />
    </clipPath>
  </defs>
  <sodipodi:namedview
     id="base"
     pagecolor="#ffffff"
     bordercolor="#666666"
     borderopacity="1.0"
     inkscape:pageopacity="0.0"
     inkscape:pageshadow="2"
     inkscape:zoom="2.8"
     inkscape:cx="33.290058"
     inkscape:cy="62.889133"
     inkscape:document-units="mm"
     inkscape:current-layer="layer1"
     inkscape:document-rotation="0"
     showgrid="false"
     fit-margin-top="0"
     fit-margin-left="0"
     fit-margin-right="0"
     fit-margin-bottom="0"
     inkscape:window-width="1920"
     inkscape:window-height="1001"
     inkscape:window-x="-9"
     inkscape:window-y="-9"
     inkscape:window-maximized="1" />
  <metadata
     id="metadata5">
    <rdf:RDF>
      <cc:Work
         rdf:about="">
        <dc:format>image/svg+xml</dc:format>
        <dc:type
           rdf:resource="http://purl.org/dc/dcmitype/StillImage" />
        <dc:title />
      </cc:Work>
    </rdf:RDF>
  </metadata>
  <g
     inkscape:label="Calque 1"
     inkscape:groupmode="layer"
     id="layer1"
     transform="translate(-99.689675,-129.03912)">
    <g
       id="g987"
       transform="matrix(0.35277777,0,0,-0.35277777,106.0238,144.44493)"
       style="stroke:#000000;stroke-opacity:1;fill:#ff0000;fill-opacity:1;fill-rule:evenodd">
      <path
         d="m 0,0 -0.191,0.009 c -1.663,0.141 -7.077,6.065 -9.058,8.512 -3.561,4.397 -7.806,10.974 -7.806,17.322 0,9.334 7.595,16.927 16.929,16.927 9.333,0 16.927,-7.593 16.928,-16.927 0,-6.389 -4.196,-12.967 -7.717,-17.36 C 9.017,8.398 2.083,0 0,0 m -0.126,13.867 c -5.156,0 -9.787,3.257 -11.524,8.109 -0.475,1.318 -0.716,2.709 -0.716,4.131 0,6.75 5.491,12.242 12.24,12.242 6.749,0 12.241,-5.492 12.241,-12.242 0,-1.65 -0.323,-3.248 -0.963,-4.755 -1.909,-4.547 -6.34,-7.485 -11.278,-7.485"
         style="fill:param(fill) #ff0000;stroke:param(outline) #000000;stroke-width:param(outline-width) 0.4;stroke-linecap:butt;stroke-linejoin:miter;stroke-miterlimit:10;stroke-dasharray:none;stroke-opacity:param(outline-opacity) 1;fill-opacity:param(fill-opacity) 1;fill-rule:evenodd"
         id="path989" />
    </g>
  </g>
</svg>
